<svg width="165" height="165" viewBox="0 0 165 165" fill="none" xmlns="http://www.w3.org/2000/svg">
<path d="M151.25 37.8125H61.875C54.3125 37.8125 48.125 44 48.125 51.5625V113.438C48.125 117.084 49.5737 120.582 52.1523 123.16C54.7309 125.739 58.2283 127.188 61.875 127.188H151.25C158.881 127.188 165 121.069 165 113.438V51.5625C165 47.9158 163.551 44.4184 160.973 41.8398C158.394 39.2612 154.897 37.8125 151.25 37.8125ZM151.25 63.0438L106.562 85.9375L61.875 63.0438V51.5625L106.562 74.3188L151.25 51.5625V63.0438ZM34.375 113.438C34.375 114.606 34.5813 115.706 34.7188 116.875H6.875C3.08 116.875 0 113.781 0 110C0 106.219 3.08 103.125 6.875 103.125H34.375V113.438ZM20.625 48.125H34.7188C34.5813 49.2937 34.375 50.3938 34.375 51.5625V61.875H20.625C16.8438 61.875 13.75 58.7812 13.75 55C13.75 51.2188 16.8438 48.125 20.625 48.125ZM6.875 82.5C6.875 78.7188 9.96875 75.625 13.75 75.625H34.375V89.375H13.75C9.96875 89.375 6.875 86.2812 6.875 82.5Z" fill="black"/>
</svg>
