<?xml version="1.0" encoding="UTF-8"?>
<svg version="1.1" xmlns="http://www.w3.org/2000/svg" width="512" height="512">
<path d="M0 0 C5.93483927 5.41519896 9.88044538 12.54682888 14.0078125 19.359375 C14.575 20.27203125 15.1421875 21.1846875 15.7265625 22.125 C19.1234753 27.82426481 19.1234753 27.82426481 18.55029297 30.47607422 C18.28176514 31.40830811 18.28176514 31.40830811 18.0078125 32.359375 C11.83554918 34.07732268 5.66058207 35.78527102 -0.51635742 37.48632812 C-2.61692717 38.06606398 -4.71686965 38.64807768 -6.81616211 39.23242188 C-9.83545112 40.07242279 -12.85690842 40.90417979 -15.87890625 41.734375 C-16.81554611 41.99686035 -17.75218597 42.2593457 -18.71720886 42.52978516 C-19.59774429 42.77003418 -20.47827972 43.0102832 -21.38549805 43.2578125 C-22.54132637 43.57758057 -22.54132637 43.57758057 -23.72050476 43.90380859 C-26.2421644 44.40950571 -28.42737101 44.57127766 -30.9921875 44.359375 C-33.28125 42.34765625 -33.28125 42.34765625 -35.6171875 39.671875 C-43.68927765 31.24208514 -53.34403746 27.69486319 -64.9921875 27.359375 C-79.52980383 28.63545466 -91.10809785 35.90999079 -100.9921875 46.359375 C-109.87941365 57.03769279 -114.66346149 69.99954202 -114.23828125 83.98046875 C-112.93306081 96.59759972 -108.05233828 105.46257603 -98.43359375 113.6328125 C-94.57714255 116.36009479 -90.48930146 117.98460959 -85.9921875 119.359375 C-85.37988281 119.55015625 -84.76757812 119.7409375 -84.13671875 119.9375 C-73.00224917 122.12788746 -61.7510799 120.41650563 -52.05078125 114.59375 C-44.94841465 109.68490342 -38.80061387 104.18932914 -34.9921875 96.359375 C-35.61415009 96.35128815 -36.23611267 96.34320129 -36.87692261 96.33486938 C-43.33303766 96.24900993 -49.78883904 96.14951524 -56.24462891 96.04199219 C-58.65603378 96.00363853 -61.06749712 95.9687971 -63.47900391 95.9375 C-66.93934063 95.89198797 -70.39927258 95.83397096 -73.859375 95.7734375 C-74.94274139 95.76188629 -76.02610779 95.75033508 -77.14230347 95.73843384 C-78.14319 95.71856415 -79.14407654 95.69869446 -80.17529297 95.67822266 C-81.05909637 95.66489899 -81.94289978 95.65157532 -82.85348511 95.6378479 C-84.9921875 95.359375 -84.9921875 95.359375 -86.9921875 93.359375 C-86.66946661 88.47135217 -85.44464367 84.55588697 -83.41015625 80.12890625 C-82.89001953 78.99646484 -82.36988281 77.86402344 -81.83398438 76.69726562 C-81.28806641 75.53388672 -80.74214844 74.37050781 -80.1796875 73.171875 C-79.64537109 71.99689453 -79.11105469 70.82191406 -78.56054688 69.61132812 C-73.76193172 59.27630335 -73.76193172 59.27630335 -69.9921875 56.359375 C-67.17293219 55.95652949 -64.73833889 55.79485766 -61.91894531 55.81347656 C-61.10881485 55.80313889 -60.29868439 55.79280121 -59.46400452 55.78215027 C-56.79090498 55.75269354 -54.11856167 55.75122252 -51.4453125 55.75 C-49.59013421 55.73502026 -47.73496927 55.71829355 -45.87982178 55.69989014 C-41.00050244 55.65618117 -36.121363 55.63620968 -31.24188232 55.62115479 C-26.26140693 55.60159649 -21.28112618 55.55962504 -16.30078125 55.51953125 C-6.53130999 55.44419073 3.23811779 55.39392252 13.0078125 55.359375 C13.7225473 53.70382599 13.7225473 53.70382599 14.45172119 52.01483154 C15.08520324 50.55508131 15.71881609 49.09538784 16.35253906 47.63574219 C16.82211533 46.5466304 16.82211533 46.5466304 17.30117798 45.43551636 C19.42455579 40.55414414 21.68964376 35.97498218 24.7578125 31.609375 C25.17264893 31.00287109 25.58748535 30.39636719 26.01489258 29.77148438 C30.45733608 23.44288689 35.62349344 17.88649191 41.0078125 12.359375 C41.57628906 11.71742188 42.14476562 11.07546875 42.73046875 10.4140625 C59.55879089 -8.09278793 88.932852 -17.44582138 113.24511719 -18.76171875 C138.17555413 -19.7585375 160.53409586 -13.80045869 180.0078125 2.359375 C180.58917969 2.79507813 181.17054688 3.23078125 181.76953125 3.6796875 C197.10918809 15.62245064 205.1751526 35.03779876 207.7578125 53.859375 C209.96153644 82.56153561 203.10973386 108.75151167 184.41455078 130.75341797 C166.47656601 151.23173519 141.91070342 167.23840001 114.2578125 170.171875 C112.17567994 170.26625738 110.09177482 170.32352702 108.0078125 170.359375 C107.24984375 170.38370605 106.491875 170.40803711 105.7109375 170.43310547 C80.15627604 171.22189007 56.52936833 166.23125524 36.7578125 148.984375 C35.15550309 147.46244034 33.57175848 145.92070569 32.0078125 144.359375 C31.23695313 143.60011719 30.46609375 142.84085938 29.671875 142.05859375 C21.43514438 133.47046677 15.99179945 123.52920345 12.0078125 112.359375 C11.26917969 113.44734375 10.53054688 114.5353125 9.76953125 115.65625 C-9.32837622 143.45435057 -32.4523994 162.01308753 -65.9921875 168.359375 C-89.31002975 172.41230239 -112.94681356 168.01488721 -132.9921875 155.359375 C-152.78837117 141.34464558 -165.38488833 122.10134521 -169.5546875 98.125 C-172.88588916 69.45287145 -164.75870701 42.78762572 -147.04467773 20.18945312 C-128.14184825 -3.08210902 -101.9044499 -18.53514356 -71.8671875 -22.015625 C-44.34948155 -24.73191116 -21.28825808 -17.53150665 0 0 Z M72.00390625 49.66796875 C63.45292717 60.91536889 60.14018964 74.44527502 61.0078125 88.359375 C63.00659571 100.31819656 70.48425541 109.26446141 80.0078125 116.359375 C82.9675252 117.84667125 82.9675252 117.84667125 86.0703125 119.046875 C87.09253906 119.46324219 88.11476563 119.87960937 89.16796875 120.30859375 C100.17382435 124.38091171 111.99970526 123.29263201 122.7421875 118.98828125 C127.98174592 116.37476945 132.48851787 113.05564362 137.0078125 109.359375 C137.84183594 108.7303125 138.67585938 108.10125 139.53515625 107.453125 C149.04374968 99.40161461 155.07709726 87.59361016 157.0078125 75.359375 C158.1213892 61.75913494 154.84973054 50.8055229 146.0078125 40.359375 C139.11114702 33.11943658 130.25742865 28.92275759 120.28125 28.0234375 C100.88283575 27.82906461 84.83329225 34.88791587 72.00390625 49.66796875 Z " fill="#00ACD7" transform="translate(303.9921875,181.640625)"/>
<path d="M0 0 C1.161259 -0.00073013 2.32251801 -0.00146027 3.51896667 -0.00221252 C7.36109973 0.00127363 11.20202377 0.04018671 15.04394531 0.0793457 C17.70625869 0.08867018 20.36850491 0.09603388 23.03082275 0.1007843 C29.32431559 0.11632042 35.61737378 0.15734507 41.91067529 0.20753175 C49.07622922 0.26343298 56.24180399 0.29091356 63.40752172 0.31600893 C78.14592681 0.36826157 92.88399099 0.45619895 107.62207031 0.56762695 C107.12408661 4.30250473 106.74715275 6.3800033 104.62207031 9.56762695 C101.80047607 9.99900818 101.80047607 9.99900818 98.125 10.07714844 C97.45132133 10.0949769 96.77764267 10.11280537 96.0835495 10.13117409 C93.82040407 10.18635244 91.55752891 10.21919301 89.29394531 10.2512207 C87.68209342 10.28404998 86.0702567 10.31763106 84.45843506 10.35191345 C65.22442841 10.72823479 45.98405982 10.68213345 26.74737549 10.6362915 C21.8579555 10.62580876 16.9685297 10.62144218 12.07910156 10.61645508 C2.59341011 10.60593149 -6.89225691 10.58901293 -16.37792969 10.56762695 C-15.17453298 0.03790577 -9.06780313 -0.14840922 0 0 Z " fill="#00ABD7" transform="translate(16.3779296875,231.432373046875)"/>
<path d="M0 0 C0.88845108 -0.00102219 1.77690216 -0.00204437 2.692276 -0.00309753 C5.61526137 0.00176136 8.53508327 0.05611976 11.45751953 0.11108398 C13.48916925 0.12414628 15.52084107 0.13410747 17.55252075 0.14109802 C22.8894583 0.16777376 28.22505369 0.23649284 33.5614624 0.31402588 C39.01100509 0.38574507 44.46076553 0.41762811 49.91064453 0.45288086 C60.59612876 0.52786354 71.28061862 0.64727241 81.96533203 0.79467773 C82.96533203 3.79467773 82.96533203 3.79467773 82.07456779 5.80571747 C78.231908 11.34448234 78.231908 11.34448234 74.92221451 12.52088928 C72.49684575 12.77980682 70.18497503 12.78556439 67.74707031 12.70288086 C66.83911209 12.70404907 65.93115387 12.70521729 64.99568176 12.7064209 C62.00742279 12.70086613 59.02320211 12.63874098 56.03564453 12.57592773 C53.95915914 12.56099984 51.8826455 12.54961541 49.80612183 12.54162598 C44.35064382 12.51113527 38.89688005 12.43259764 33.44207764 12.34399414 C27.87194 12.26203709 22.30152431 12.22559337 16.73095703 12.18530273 C5.80833039 12.0996013 -5.11302604 11.96313052 -16.03466797 11.79467773 C-14.28052493 2.77247489 -8.59831593 -0.26092046 0 0 Z " fill="#00ACD7" transform="translate(53.03466796875,207.205322265625)"/>
<path d="M0 0 C2.29055786 -0.36076355 2.29055786 -0.36076355 5.18408203 -0.34057617 C6.80553635 -0.34023628 6.80553635 -0.34023628 8.45974731 -0.33988953 C9.63060883 -0.32440567 10.80147034 -0.30892181 12.0078125 -0.29296875 C13.8014473 -0.28660149 13.8014473 -0.28660149 15.63131714 -0.28010559 C19.46277071 -0.26326902 23.29370453 -0.22560684 27.125 -0.1875 C29.71744034 -0.17245964 32.30988889 -0.15877011 34.90234375 -0.14648438 C41.26840748 -0.11334918 47.63416662 -0.0631003 54 0 C53.67 2.97 53.34 5.94 53 9 C34.19 9 15.38 9 -4 9 C-2 3 -2 3 0 0 Z " fill="#00ABD7" transform="translate(64,255)"/>
</svg>
