<svg width="90" height="90" viewBox="0 0 90 90" fill="none" xmlns="http://www.w3.org/2000/svg">
<g clip-path="url(#clip0_76_32)">
<mask id="mask0_76_32" style="mask-type:luminance" maskUnits="userSpaceOnUse" x="21" y="71" width="43" height="10">
<path d="M21.7676 71.8538H63.1092V81H21.7676V71.8538Z" fill="white"/>
</mask>
<g mask="url(#mask0_76_32)">
<path d="M21.7676 71.8538H63.1092V81H21.7676V71.8538Z" fill="#DAD5B7"/>
</g>
<mask id="mask1_76_32" style="mask-type:luminance" maskUnits="userSpaceOnUse" x="18" y="71" width="11" height="11">
<path d="M18.1094 71.3962H28.1701V81.4574H18.1094V71.3962Z" fill="white"/>
</mask>
<g mask="url(#mask1_76_32)">
<mask id="mask2_76_32" style="mask-type:luminance" maskUnits="userSpaceOnUse" x="18" y="71" width="11" height="11">
<path d="M23.1398 71.3962C20.3615 71.3962 18.1094 73.6484 18.1094 76.4266C18.1094 79.2053 20.3615 81.4574 23.1398 81.4574C25.918 81.4574 28.1701 79.2053 28.1701 76.4266C28.1701 73.6484 25.918 71.3962 23.1398 71.3962Z" fill="white"/>
</mask>
<g mask="url(#mask2_76_32)">
<path d="M18.1094 71.3962H28.1701V81.4574H18.1094V71.3962Z" fill="#DAD5B7"/>
</g>
</g>
<mask id="mask3_76_32" style="mask-type:luminance" maskUnits="userSpaceOnUse" x="26" y="7" width="11" height="57">
<path d="M26.6699 7.82947H36.1092V63.6585H26.6699V7.82947Z" fill="white"/>
</mask>
<g mask="url(#mask3_76_32)">
<path d="M26.6699 7.82947H36.1092V63.6585H26.6699V7.82947Z" fill="#243757"/>
</g>
<path d="M81 63V9C81 8.85286 80.9965 8.7053 80.9892 8.55859C80.9818 8.41146 80.9709 8.26432 80.9566 8.11806C80.9423 7.97135 80.924 7.82509 80.9028 7.67925C80.8811 7.53385 80.8559 7.38845 80.8273 7.24436C80.7982 7.09983 80.7661 6.95616 80.7305 6.81337C80.6944 6.67014 80.6554 6.52821 80.6124 6.38759C80.5699 6.24653 80.5234 6.10677 80.474 5.96788C80.4245 5.82943 80.3711 5.69184 80.3151 5.55599C80.2587 5.4197 80.1988 5.28516 80.1358 5.15191C80.0729 5.01866 80.0065 4.88715 79.9371 4.75738C79.8681 4.6276 79.7951 4.49957 79.7196 4.37326C79.6437 4.24653 79.5651 4.1224 79.4831 4C79.4015 3.8776 79.3164 3.75694 79.2287 3.63889C79.1411 3.5204 79.0503 3.40451 78.957 3.29036C78.8637 3.17665 78.7674 3.0651 78.6684 2.95616C78.5694 2.84679 78.4683 2.74002 78.3642 2.63585C78.26 2.53168 78.1532 2.43056 78.0438 2.3316C77.9349 2.23264 77.8233 2.13628 77.7096 2.04297C77.5955 1.94965 77.4796 1.85894 77.3611 1.77127C77.2431 1.68359 77.1224 1.59852 77 1.51693C76.8776 1.4349 76.753 1.35634 76.6267 1.28038C76.5004 1.20486 76.3724 1.13194 76.2426 1.0625C76.1128 0.99349 75.9813 0.927083 75.8481 0.864149C75.7148 0.801215 75.5803 0.741319 75.444 0.684896C75.3082 0.628906 75.1706 0.575521 75.0321 0.526042C74.8932 0.476562 74.7535 0.430122 74.6124 0.387587C74.4718 0.344618 74.3299 0.305556 74.1866 0.269531C74.0438 0.233941 73.9002 0.201823 73.7556 0.172743C73.6115 0.144097 73.4661 0.118924 73.3207 0.0972222C73.1749 0.0759549 73.0286 0.0577257 72.8819 0.0434028C72.7357 0.0290799 72.5885 0.0182291 72.4414 0.0108507C72.2947 0.00347222 72.1471 0 72 0H18C17.8529 0 17.7053 0.00347222 17.5586 0.0108507C17.4115 0.0182291 17.2643 0.0290799 17.1181 0.0434028C16.9714 0.0577257 16.8251 0.0759549 16.6793 0.0972222C16.5339 0.118924 16.3885 0.144097 16.2444 0.172743C16.0998 0.201823 15.9562 0.233941 15.8134 0.269531C15.6701 0.305556 15.5282 0.344618 15.3876 0.387587C15.2465 0.430122 15.1068 0.476562 14.9679 0.526042C14.8294 0.575521 14.6918 0.628906 14.556 0.684896C14.4197 0.741319 14.2852 0.801215 14.1519 0.864149C14.0187 0.927083 13.8872 0.99349 13.7574 1.0625C13.6276 1.13194 13.4996 1.20486 13.3733 1.28038C13.2465 1.35634 13.1224 1.4349 13 1.51693C12.8776 1.59852 12.7569 1.68359 12.6389 1.77127C12.5204 1.85894 12.4045 1.94965 12.2904 2.04297C12.1766 2.13628 12.0651 2.23264 11.9562 2.3316C11.8468 2.43056 11.74 2.53168 11.6359 2.63585C11.5317 2.74002 11.4306 2.84679 11.3316 2.95616C11.2326 3.0651 11.1363 3.17665 11.043 3.29036C10.9497 3.40451 10.8589 3.5204 10.7713 3.63889C10.6836 3.75694 10.5985 3.8776 10.5169 4C10.4349 4.1224 10.3563 4.24653 10.2804 4.37326C10.2049 4.49957 10.1319 4.6276 10.0625 4.75738C9.99349 4.88715 9.92708 5.01866 9.86415 5.15191C9.80122 5.28516 9.74132 5.4197 9.6849 5.55599C9.62891 5.69184 9.57552 5.82943 9.52604 5.96788C9.47656 6.10677 9.43012 6.24653 9.38759 6.38759C9.34462 6.52821 9.30556 6.67014 9.26953 6.81337C9.23394 6.95616 9.20182 7.09983 9.17274 7.24436C9.1441 7.38845 9.11892 7.53385 9.09722 7.67925C9.07595 7.82509 9.05773 7.97135 9.0434 8.11806C9.02908 8.26432 9.01823 8.41146 9.01085 8.55859C9.00347 8.7053 9 8.85286 9 9V76.5C9 76.7209 9.00521 76.9418 9.01606 77.1623C9.02691 77.3832 9.0434 77.6033 9.0651 77.8233C9.08681 78.043 9.11372 78.2622 9.14627 78.4809C9.17839 78.6992 9.21615 78.9171 9.25955 79.1337C9.30252 79.3503 9.35069 79.566 9.40451 79.7804C9.45833 79.9944 9.51736 80.2075 9.58116 80.4188C9.6454 80.6302 9.71484 80.8398 9.78906 81.0482C9.86372 81.2561 9.94314 81.4622 10.0278 81.6662C10.112 81.8702 10.2018 82.0721 10.296 82.2721C10.3906 82.4718 10.49 82.6688 10.5942 82.8637C10.6984 83.0586 10.8073 83.2509 10.9206 83.4405C11.0343 83.6298 11.1523 83.8164 11.2752 84C11.398 84.184 11.5252 84.3646 11.6567 84.5421C11.7882 84.7192 11.924 84.8937 12.0642 85.0642C12.2044 85.2352 12.349 85.4023 12.497 85.566C12.6454 85.7296 12.7977 85.8898 12.954 86.046C13.1102 86.2023 13.2704 86.3546 13.434 86.503C13.5977 86.651 13.7648 86.7956 13.9358 86.9358C14.1063 87.076 14.2808 87.2118 14.4579 87.3433C14.6354 87.4748 14.816 87.602 15 87.7248C15.1836 87.8477 15.3702 87.9657 15.5595 88.0794C15.7491 88.1927 15.9414 88.3017 16.1363 88.4058C16.3312 88.51 16.5282 88.6094 16.7279 88.704C16.9275 88.7982 17.1298 88.888 17.3338 88.9722C17.5378 89.0569 17.7439 89.1363 17.9518 89.2109C18.1602 89.2852 18.3698 89.3546 18.5812 89.4188C18.7925 89.4826 19.0056 89.5417 19.2196 89.5955C19.434 89.6493 19.6497 89.6975 19.8663 89.7405C20.0829 89.7839 20.3008 89.8216 20.5191 89.8537C20.7378 89.8863 20.957 89.9132 21.1766 89.9349C21.3967 89.9566 21.6168 89.9731 21.8377 89.9839C22.0582 89.9948 22.2791 90 22.5 90H76.5C76.6476 90 76.7943 89.9926 76.941 89.9783C77.0877 89.964 77.2335 89.9423 77.378 89.9136C77.5226 89.885 77.6654 89.849 77.8064 89.8064C77.9475 89.7635 78.0859 89.714 78.2222 89.6576C78.3581 89.6011 78.4913 89.5382 78.6211 89.4688C78.7513 89.3993 78.8776 89.3233 79 89.2418C79.1224 89.1597 79.2409 89.0721 79.3546 88.9787C79.4688 88.885 79.5777 88.786 79.6819 88.6819C79.786 88.5777 79.885 88.4688 79.9787 88.3546C80.0721 88.2409 80.1597 88.1224 80.2418 88C80.3233 87.8776 80.3993 87.7513 80.4688 87.6211C80.5382 87.4913 80.6011 87.3581 80.6576 87.2222C80.714 87.0859 80.7635 86.9475 80.8064 86.8064C80.849 86.6654 80.885 86.5226 80.9136 86.378C80.9423 86.2335 80.964 86.0877 80.9783 85.941C80.9926 85.7943 81 85.6476 81 85.5C81 85.3524 80.9926 85.2057 80.9783 85.059C80.964 84.9123 80.9423 84.7665 80.9136 84.622C80.885 84.4774 80.849 84.3346 80.8064 84.1936C80.7635 84.0525 80.714 83.9141 80.6576 83.7778C80.6011 83.6419 80.5382 83.5087 80.4688 83.3789C80.3993 83.2487 80.3233 83.1224 80.2418 83C80.1597 82.8772 80.0721 82.7591 79.9787 82.6454C79.885 82.5312 79.786 82.4223 79.6819 82.3181C79.5777 82.214 79.4688 82.115 79.3546 82.0213C79.2409 81.928 79.1224 81.8403 79 81.7582C78.8776 81.6767 78.7513 81.6007 78.6211 81.5312C78.4913 81.4618 78.3581 81.3989 78.2222 81.3424C78.0859 81.286 77.9475 81.2365 77.8064 81.1936C77.6654 81.151 77.5226 81.115 77.378 81.0864C77.2335 81.0577 77.0877 81.036 76.941 81.0217C76.7943 81.0074 76.6476 81 76.5 81H72V72C72.1471 72 72.2947 71.9965 72.4414 71.9892C72.5885 71.9818 72.7357 71.9709 72.8819 71.9566C73.0286 71.9423 73.1749 71.924 73.3207 71.9028C73.4661 71.8811 73.6115 71.8559 73.7556 71.8273C73.9002 71.7982 74.0438 71.7661 74.1866 71.7305C74.3299 71.6944 74.4718 71.6554 74.6124 71.6124C74.7535 71.5699 74.8932 71.5234 75.0321 71.474C75.1706 71.4245 75.3082 71.3711 75.444 71.3151C75.5803 71.2587 75.7148 71.1988 75.8481 71.1358C75.9813 71.0729 76.1128 71.0065 76.2426 70.9371C76.3724 70.8681 76.5004 70.7951 76.6267 70.7196C76.753 70.6437 76.8776 70.5651 77 70.4831C77.1224 70.4015 77.2431 70.3164 77.3611 70.2287C77.4796 70.1411 77.5955 70.0503 77.7096 69.957C77.8233 69.8637 77.9349 69.7674 78.0438 69.6684C78.1532 69.5694 78.26 69.4683 78.3642 69.3642C78.4683 69.26 78.5694 69.1532 78.6684 69.0438C78.7674 68.9349 78.8637 68.8233 78.957 68.7096C79.0503 68.5955 79.1411 68.4796 79.2287 68.3611C79.3164 68.2431 79.4015 68.1224 79.4831 68C79.5651 67.8776 79.6437 67.753 79.7196 67.6267C79.7951 67.5004 79.8681 67.3724 79.9375 67.2426C80.0065 67.1128 80.0729 66.9813 80.1358 66.8481C80.1988 66.7148 80.2587 66.5803 80.3151 66.444C80.3711 66.3082 80.4245 66.1706 80.474 66.0321C80.5234 65.8932 80.5699 65.7535 80.6124 65.6124C80.6554 65.4718 80.6944 65.3299 80.7305 65.1866C80.7661 65.0438 80.7982 64.9002 80.8273 64.7556C80.8559 64.6115 80.8811 64.4661 80.9028 64.3207C80.924 64.1749 80.9423 64.0286 80.9566 63.8819C80.9709 63.7357 80.9818 63.5885 80.9892 63.4414C80.9965 63.2947 81 63.1471 81 63ZM27 9H36V63H27V9ZM63 81H22.5C22.3524 81 22.2057 80.9926 22.059 80.9783C21.9123 80.964 21.7665 80.9423 21.622 80.9136C21.4774 80.885 21.3346 80.849 21.1936 80.8064C21.0525 80.7635 20.9141 80.714 20.7778 80.6576C20.6419 80.6011 20.5087 80.5382 20.3789 80.4688C20.2487 80.3993 20.1224 80.3233 20 80.2418C19.8776 80.1597 19.7591 80.0721 19.6454 79.9787C19.5312 79.885 19.4223 79.786 19.3181 79.6819C19.214 79.5777 19.115 79.4688 19.0213 79.3546C18.928 79.2409 18.8403 79.1224 18.7582 79C18.6766 78.8776 18.6007 78.7513 18.5312 78.6211C18.4618 78.4913 18.3989 78.3581 18.3424 78.2222C18.286 78.0859 18.2365 77.9475 18.1936 77.8064C18.151 77.6654 18.115 77.5226 18.0864 77.378C18.0577 77.2335 18.036 77.0877 18.0217 76.941C18.0074 76.7943 18 76.6476 18 76.5C18 76.3524 18.0074 76.2057 18.0217 76.059C18.036 75.9123 18.0577 75.7665 18.0864 75.622C18.115 75.4774 18.151 75.3346 18.1936 75.1936C18.2365 75.0525 18.286 74.9141 18.3424 74.7778C18.3989 74.6419 18.4618 74.5087 18.5312 74.3789C18.6007 74.2487 18.6766 74.1224 18.7582 74C18.8403 73.8776 18.928 73.7591 19.0213 73.6454C19.115 73.5312 19.214 73.4223 19.3181 73.3181C19.4223 73.214 19.5312 73.115 19.6454 73.0213C19.7591 72.928 19.8776 72.8403 20 72.7582C20.1224 72.6767 20.2487 72.6007 20.3789 72.5312C20.5087 72.4618 20.6419 72.3989 20.7778 72.3424C20.9141 72.286 21.0525 72.2365 21.1936 72.1936C21.3346 72.151 21.4774 72.115 21.622 72.0864C21.7665 72.0577 21.9123 72.036 22.059 72.0217C22.2057 72.0074 22.3524 72 22.5 72H63V81Z" fill="#665E52"/>
<path d="M67.4022 20.8976C67.9027 21.7401 68.4352 22.5526 68.8923 23.4098C69.2629 24.1042 69.601 24.8134 69.7642 25.5895C69.9778 26.6029 69.812 27.566 69.302 28.4584C68.634 29.6272 67.6258 30.3429 66.3007 30.5899C64.3302 30.9575 62.3254 29.846 61.5737 27.9866C61.3371 27.4011 61.2243 26.7947 61.2577 26.165C61.2842 25.6663 61.4226 25.1906 61.6015 24.7262C61.9496 23.8243 62.4266 22.9892 62.9335 22.1706C63.6106 21.0769 64.2456 19.9592 64.8888 18.8464C65.0863 18.5044 65.2829 18.1619 65.4808 17.8199C65.499 17.7887 65.5108 17.7487 65.5754 17.7357C66.1809 18.7835 66.7894 19.8364 67.4022 20.8976Z" fill="#7D1A0C"/>
<path d="M59.7929 33.8125C60.2933 34.6545 60.8259 35.467 61.2833 36.3242C61.6535 37.0186 61.9917 37.7278 62.1553 38.5039C62.3684 39.5173 62.2026 40.4804 61.6926 41.3728C61.0251 42.5416 60.0164 43.2574 58.6913 43.5043C56.7208 43.8719 54.716 42.7608 53.9643 40.901C53.7278 40.3155 53.6149 39.7092 53.6483 39.0798C53.6748 38.5807 53.8133 38.105 53.9925 37.6406C54.3402 36.7387 54.8172 35.9036 55.3241 35.085C56.0012 33.9917 56.6362 32.8741 57.2794 31.7608C57.4769 31.4188 57.6735 31.0764 57.8719 30.7348C57.8897 30.7035 57.9014 30.6632 57.966 30.6501C58.5715 31.6983 59.18 32.7513 59.7929 33.8125Z" fill="#7D1A0C"/>
<path d="M54.4883 14.4914C54.9887 15.3334 55.5213 16.1459 55.9783 17.0031C56.349 17.6975 56.6871 18.4067 56.8503 19.1828C57.0638 20.1962 56.8976 21.1593 56.388 22.0521C55.7201 23.2205 54.7118 23.9362 53.3867 24.1832C51.4163 24.5508 49.411 23.4397 48.6597 21.5799C48.4232 20.9944 48.3099 20.3881 48.3438 19.7587C48.3702 19.2596 48.5087 18.7839 48.6875 18.3199C49.0352 17.4176 49.5126 16.5825 50.0196 15.7639C50.6962 14.6706 51.3316 13.553 51.9748 12.4397C52.1723 12.0977 52.3689 11.7552 52.5669 11.4137C52.5851 11.3824 52.5968 11.3425 52.6615 11.3295C53.2669 12.3772 53.8755 13.4302 54.4883 14.4914Z" fill="#7D1A0C"/>
</g>
<defs>
<clipPath id="clip0_76_32">
<rect width="90" height="90" fill="white"/>
</clipPath>
</defs>
</svg>
