<svg width="56" height="56" viewBox="0 0 56 56" fill="none" xmlns="http://www.w3.org/2000/svg">
<path fill-rule="evenodd" clip-rule="evenodd" d="M11.1982 7.46656C10.208 7.46656 9.25845 7.85989 8.55831 8.56003C7.85818 9.26016 7.46484 10.2098 7.46484 11.1999V44.7999C7.46484 45.79 7.85818 46.7396 8.55831 47.4398C9.25845 48.1399 10.208 48.5332 11.1982 48.5332H44.7982C45.7883 48.5332 46.7379 48.1399 47.438 47.4398C48.1382 46.7396 48.5315 45.79 48.5315 44.7999V31.7332C48.5315 31.2382 48.3349 30.7634 47.9848 30.4133C47.6347 30.0632 47.1599 29.8666 46.6648 29.8666C46.1698 29.8666 45.695 30.0632 45.3449 30.4133C44.9948 30.7634 44.7982 31.2382 44.7982 31.7332V44.7999H11.1982V11.1999H24.2648C24.7599 11.1999 25.2347 11.0032 25.5848 10.6532C25.9348 10.3031 26.1315 9.8283 26.1315 9.33323C26.1315 8.83816 25.9348 8.36336 25.5848 8.01329C25.2347 7.66323 24.7599 7.46656 24.2648 7.46656H11.1982ZM47.9864 8.01163C48.3336 8.35963 48.5294 8.8305 48.5315 9.32203V20.5332C48.5315 21.0283 48.3349 21.5031 47.9848 21.8532C47.6347 22.2032 47.1599 22.3999 46.6648 22.3999C46.1698 22.3999 45.695 22.2032 45.3449 21.8532C44.9948 21.5031 44.7982 21.0283 44.7982 20.5332V13.8394L25.5864 33.0548C25.4129 33.2284 25.2069 33.3661 24.9801 33.46C24.7533 33.5539 24.5103 33.6023 24.2648 33.6023C24.0194 33.6023 23.7764 33.5539 23.5496 33.46C23.3228 33.3661 23.1168 33.2284 22.9432 33.0548C22.7697 32.8813 22.632 32.6752 22.5381 32.4485C22.4442 32.2217 22.3958 31.9787 22.3958 31.7332C22.3958 31.4878 22.4442 31.2447 22.5381 31.018C22.632 30.7912 22.7697 30.5852 22.9432 30.4116L42.1587 11.1999H35.4648C34.9698 11.1999 34.495 11.0032 34.1449 10.6532C33.7948 10.3031 33.5982 9.8283 33.5982 9.33323C33.5982 8.83816 33.7948 8.36336 34.1449 8.01329C34.495 7.66323 34.9698 7.46656 35.4648 7.46656H46.6648C46.9102 7.46592 47.1532 7.51374 47.38 7.60728C47.6068 7.70081 47.8129 7.83823 47.9864 8.01163Z" fill="black"/>
</svg>
