<svg width="60" height="60" viewBox="0 0 60 60" fill="none" xmlns="http://www.w3.org/2000/svg">
<g filter="url(#filter0_b_93_887)">
<rect width="60" height="60" rx="6" fill="#3FB27F" fill-opacity="0.15"/>
<rect x="0.5" y="0.5" width="59" height="59" rx="5.5" stroke="url(#paint0_linear_93_887)"/>
<path fill-rule="evenodd" clip-rule="evenodd" d="M31.2497 22V26.25C32.1286 24.8776 33.3544 23.7618 34.8032 23.0155C36.2519 22.2692 37.8721 21.9189 39.4997 22C48.2497 22 49.9997 27.5 49.9997 34.5V48.75H41.9997V36.25C41.9997 33 41.4997 29.25 36.7497 29.25C31.9997 29.25 31.2497 32.5 31.2497 35.75V48.75H23.2497V22H31.2497ZM17.9997 15.25C18.0195 15.8711 17.8944 16.4883 17.6341 17.0526C17.3739 17.6169 16.9858 18.1128 16.5005 18.501C16.0153 18.8892 15.4463 19.159 14.8386 19.289C14.2309 19.419 13.6013 19.4057 12.9997 19.25C12.4505 19.0872 11.9427 18.8083 11.5106 18.4322C11.0786 18.0562 10.7323 17.5917 10.4953 17.0702C10.2582 16.5487 10.136 15.9824 10.1367 15.4096C10.1375 14.8368 10.2613 14.2708 10.4997 13.75C10.776 13.2353 11.1617 12.7874 11.6296 12.4377C12.0975 12.088 12.6364 11.845 13.2082 11.7259C13.7801 11.6068 14.3712 11.6143 14.9398 11.7481C15.5084 11.8818 16.0409 12.1385 16.4997 12.5C17.2497 13.25 17.7497 14.25 17.7497 15.25H17.9997Z" fill="#3FB27F"/>
<path d="M18 22H10V48.75H18V22Z" fill="#3FB27F"/>
</g>
<defs>
<filter id="filter0_b_93_887" x="-20" y="-20" width="100" height="100" filterUnits="userSpaceOnUse" color-interpolation-filters="sRGB">
<feFlood flood-opacity="0" result="BackgroundImageFix"/>
<feGaussianBlur in="BackgroundImageFix" stdDeviation="10"/>
<feComposite in2="SourceAlpha" operator="in" result="effect1_backgroundBlur_93_887"/>
<feBlend mode="normal" in="SourceGraphic" in2="effect1_backgroundBlur_93_887" result="shape"/>
</filter>
<linearGradient id="paint0_linear_93_887" x1="3" y1="2" x2="60" y2="58" gradientUnits="userSpaceOnUse">
<stop stop-color="#3FB27F"/>
<stop offset="1" stop-color="#F1F9FE"/>
</linearGradient>
</defs>
</svg>
