<svg width="135" height="135" viewBox="0 0 135 135" fill="none" xmlns="http://www.w3.org/2000/svg">
<path d="M25.3125 16.875C25.3125 12.3995 27.0904 8.10725 30.2551 4.94257C33.4197 1.7779 37.712 0 42.1875 0L92.8125 0C97.288 0 101.58 1.7779 104.745 4.94257C107.91 8.10725 109.688 12.3995 109.688 16.875V118.125C109.688 122.601 107.91 126.893 104.745 130.057C101.58 133.222 97.288 135 92.8125 135H42.1875C37.712 135 33.4197 133.222 30.2551 130.057C27.0904 126.893 25.3125 122.601 25.3125 118.125V16.875ZM75.9375 109.688C75.9375 107.45 75.0485 105.304 73.4662 103.721C71.8839 102.139 69.7378 101.25 67.5 101.25C65.2622 101.25 63.1161 102.139 61.5338 103.721C59.9515 105.304 59.0625 107.45 59.0625 109.688C59.0625 111.925 59.9515 114.071 61.5338 115.654C63.1161 117.236 65.2622 118.125 67.5 118.125C69.7378 118.125 71.8839 117.236 73.4662 115.654C75.0485 114.071 75.9375 111.925 75.9375 109.688Z" fill="black"/>
</svg>
